<?xml version="1.0" encoding="utf-8"?>
<!-- Generator: Adobe Illustrator 26.0.3, SVG Export Plug-In . SVG Version: 6.00 Build 0)  -->
<svg version="1.1" id="Layer_1" xmlns="http://www.w3.org/2000/svg" xmlns:xlink="http://www.w3.org/1999/xlink" x="0px" y="0px"
	 viewBox="0 0 33 29" style="enable-background:new 0 0 33 29;" xml:space="preserve">
<style type="text/css">
	.st0{fill-rule:evenodd;clip-rule:evenodd;}
</style>
<path class="st0" d="M4.1,11.3c1.2,3.4,5.9,11.1,14.6,13.2c2.3-0.8,4.1-2.3,3.8-2.9c-0.1-0.7-3.2-3.3-4.4-3.3
	c-1.1-0.1-1.9,2.1-1.9,2.1c-0.1,0.1-0.5,0.5-1,0.4c-0.7-0.1-7.6-3.4-7.1-7.3c1.5-0.7,2.5-1.8,2.2-2.2c-0.1-0.5-2.9-3.8-3.7-3.8
	C5.9,7.1,5.2,8.3,4.9,8.8l0,0C4.7,9.3,4.2,10.8,4.1,11.3z"/>
<path d="M18.7,24.4l-0.1,0.4c0.1,0,0.1,0,0.3,0L18.7,24.4z M4.1,11.3l-0.3-0.1c0,0.1,0,0.1,0,0.3L4.1,11.3z M18.3,18v-0.4l0,0V18z
	 M16.6,20.2l0.3,0.3c0.1-0.1,0.1-0.1,0.1-0.3H16.6z M15.5,20.5l-0.1,0.4l0,0L15.5,20.5z M8.2,13.4L8.1,13c-0.1,0.1-0.3,0.1-0.3,0.3
	L8.2,13.4z M10.4,11l0.4-0.1l0,0L10.4,11z M6.7,7.2v0.4l0,0V7.2z M4.9,8.8L5.3,9l0,0L4.9,8.8z M4.9,8.8L5.2,9l0,0L4.9,8.8z M26.5,4
	l0.1-0.4h-0.1V4z M28.2,16.5h-0.4v0.1L28.2,16.5z M7.7,6.5c0,0.3,0.1,0.4,0.4,0.4c0.1,0,0.4-0.1,0.4-0.4H7.7z M8.1,5.8H7.7l0,0H8.1z
	 M13,17.6c-0.3,0-0.4,0.1-0.4,0.4s0.1,0.4,0.4,0.4V17.6z M10.3,5.8c-0.1-0.1-0.4-0.1-0.5,0c-0.1,0.3-0.1,0.5,0,0.7L10.3,5.8z
	 M18.1,13.2l-0.3,0.3c0.1,0.1,0.4,0.1,0.5,0L18.1,13.2z M26.4,6.5c0.1-0.1,0.1-0.4,0.1-0.5c-0.1-0.1-0.4-0.1-0.5-0.1L26.4,6.5z
	 M26.1,16.5c0.1,0.1,0.4,0.1,0.5-0.1c0.1-0.1,0.1-0.4-0.1-0.5L26.1,16.5z M21.8,11.9c-0.1-0.1-0.4-0.1-0.5,0.1
	c-0.1,0.1-0.1,0.4,0.1,0.5L21.8,11.9z M15,12.3c0.1-0.1,0.1-0.4,0-0.5s-0.4-0.1-0.5,0L15,12.3z M10.6,15.2c-0.1,0.1-0.1,0.4,0,0.5
	c0.1,0.1,0.4,0.1,0.5,0L10.6,15.2z M18.8,24c-8.5-1.8-13-9.2-14.3-12.8l-0.7,0.3c1.2,3.6,5.9,11.3,15,13.3L18.8,24z M22.2,21.5
	L22.2,21.5c0,0.1-0.1,0.1-0.1,0.3c-0.1,0.3-0.4,0.5-0.7,0.7c-0.7,0.5-1.8,1.1-2.7,1.5l0.3,0.7c1.1-0.5,2.2-1.1,3-1.6
	c0.4-0.3,0.7-0.5,0.8-0.8c0.1-0.1,0.3-0.3,0.3-0.4c0.1-0.1,0.1-0.3,0.1-0.5L22.2,21.5z M18.3,18.6c0.3,0,0.5,0.1,1,0.4
	c0.4,0.3,0.8,0.7,1.4,1c0.5,0.3,0.8,0.7,1.1,1.1c0.1,0.1,0.3,0.3,0.4,0.5c0.1,0.3,0.1,0.1,0.1,0.1l0.7-0.1c0-0.1-0.1-0.3-0.3-0.5
	c-0.1-0.1-0.3-0.3-0.4-0.5c-0.3-0.4-0.7-0.7-1.2-1.1c-0.5-0.4-1-0.7-1.5-1.1c-0.5-0.3-0.8-0.5-1.4-0.5v0.8H18.3z M16.9,20.2
	L16.9,20.2L16.9,20.2L16.9,20.2L16.9,20.2c0-0.1,0.1-0.1,0.1-0.3c0.1-0.1,0.1-0.5,0.3-0.7c0.1-0.3,0.3-0.5,0.5-0.7
	c0.1-0.1,0.4-0.3,0.5-0.3v-0.7c-0.4,0-0.7,0.1-1.1,0.4c-0.3,0.3-0.5,0.5-0.7,0.8c-0.1,0.3-0.3,0.5-0.4,0.7c-0.3,0.3-0.3,0.4-0.3,0.4
	v0.3c0,0,0,0,0,0.1v0.1L16.9,20.2z M15.5,20.9c0.7,0.1,1.2-0.3,1.4-0.5l-0.7-0.5c0,0.1-0.3,0.3-0.7,0.1L15.5,20.9z M7.8,13.4
	c-0.1,1.1,0.3,2.1,0.8,3c0.7,0.8,1.5,1.8,2.3,2.3c0.8,0.7,1.9,1.2,2.6,1.6c0.4,0.3,0.7,0.4,1,0.5s0.5,0.3,0.7,0.3l0.1-0.7l0,0h-0.1
	c-0.1,0-0.1-0.1-0.3-0.1c-0.3-0.1-0.5-0.3-0.8-0.5c-0.7-0.4-1.6-0.8-2.5-1.6c-0.8-0.7-1.8-1.4-2.2-2.2c-0.5-0.8-0.8-1.6-0.7-2.5h-1
	V13.4z M10.2,11.2c0,0,0,0.1-0.1,0.3c-0.1,0.1-0.1,0.3-0.4,0.5c-0.4,0.4-0.8,0.7-1.6,1.1l0.3,0.7c0.7-0.3,1.5-0.7,1.9-1.2
	c0.3-0.3,0.5-0.5,0.5-0.7c0.1-0.3,0.1-0.5,0.1-0.7H10.2z M6.7,7.6L6.7,7.6L6.7,7.6C7,7.7,7.1,7.9,7.4,8.2c0.4,0.3,0.7,0.7,1.1,1.1
	c0.4,0.5,0.7,0.8,1.1,1.2c0.1,0.1,0.3,0.3,0.4,0.5c0.1,0.1,0.1,0.1,0.1,0.1v0l0,0l0.7-0.3c0-0.1-0.1-0.3-0.3-0.5
	c-0.1-0.1-0.3-0.3-0.4-0.5C9.9,9.4,9.5,9,9.1,8.6C8.5,8,8.2,7.7,7.8,7.3C7.7,7.2,7.5,7.1,7.3,7.1C7.1,6.9,6.9,6.9,6.7,6.9V7.6z
	 M5.2,9.1c0.1-0.3,0.4-0.7,0.7-1c0.3-0.4,0.5-0.5,0.7-0.5l0.1-0.7C6.2,6.8,5.6,7.2,5.2,7.6C5.1,8,4.7,8.4,4.7,8.7L5.2,9.1z M5.2,9.1
	L5.2,9.1L4.5,8.7l0,0L5.2,9.1z M4.5,11.3c0.1-0.3,0.3-0.8,0.3-1.2C4.9,9.5,5.1,9.3,5.2,9L4.7,8.7C4.5,9,4.4,9.4,4.1,9.9
	c-0.1,0.5-0.3,1-0.4,1.2L4.5,11.3z M9.9,4.4h16.6V3.6H9.9V4.4z M26.4,4.4c0.3,0.1,0.7,0.3,0.8,0.5c0.3,0.3,0.5,0.5,0.5,0.7h0.7
	c0-0.5-0.5-1-0.7-1.2c-0.4-0.3-0.8-0.5-1.1-0.5L26.4,4.4z M27.7,5.5v11.1h0.7V5.5C28.6,5.5,27.7,5.5,27.7,5.5z M27.9,16.7
	c0.1,0.3,0.1,0.5-0.1,0.7c-0.1,0.1-0.5,0.4-1.2,0.4v0.7c0.8,0,1.5-0.3,1.9-0.7c0.3-0.5,0.3-0.8,0.3-1.2L27.9,16.7z M8.5,6.5V5.8H7.7
	v0.7H8.5L8.5,6.5z M8.5,5.8c0-0.3,0.1-0.7,0.4-1S9.5,4.3,10,4.3V3.6C9.3,3.6,8.8,4,8.2,4.4c-0.4,0.4-0.5,1-0.5,1.4H8.5z M26.5,17.6
	H13v0.7h13.3C26.5,18.6,26.5,17.6,26.5,17.6z M9.9,6.5l8,7l0.5-0.5l-8-7.1L9.9,6.5z M18.3,13.5l8.1-7l-0.5-0.7l-8.1,7L18.3,13.5z
	 M26.5,16l-4.7-4.1l-0.5,0.7l4.7,4.1L26.5,16z M14.6,11.9l-4,3.3l0.5,0.7l3.8-3.3L14.6,11.9z"/>
</svg>
