<svg width="33" height="29" viewBox="0 0 33 29" fill="none" xmlns="http://www.w3.org/2000/svg">
<path fill-rule="evenodd" clip-rule="evenodd" d="M0.520752 10.4309C2.12396 15.0353 8.16743 24.9013 19.5157 27.5301C22.4989 26.313 24.8124 24.4875 24.6297 23.6964C24.4471 22.9054 20.6116 19.376 18.9678 19.3152C17.4297 19.2582 16.5845 21.9718 16.5819 22.0716C16.4458 22.2781 16.0106 22.6348 15.254 22.5403C14.2799 22.4186 5.33037 17.9765 5.81742 13.0475C7.76562 12.1956 8.98324 10.8569 8.73972 10.1267C8.49619 9.39648 4.9042 5.13691 3.80834 5.07606C2.72288 5.01579 1.87635 6.56744 1.50539 7.24738L1.49485 7.2667C1.20262 7.80219 0.723689 9.59932 0.520752 10.4309Z" fill="#F7771D"/>
<path d="M19.5157 27.5301L19.4029 28.0172C19.5035 28.0405 19.6089 28.032 19.7046 27.993L19.5157 27.5301ZM0.520752 10.4309L0.0350054 10.3124C0.0121525 10.4061 0.0168586 10.5043 0.0485571 10.5954L0.520752 10.4309ZM18.9678 19.3152L18.9863 18.8155L18.9863 18.8155L18.9678 19.3152ZM16.5819 22.0716L16.9994 22.3469C17.0508 22.2688 17.0794 22.1779 17.0818 22.0844L16.5819 22.0716ZM15.254 22.5403L15.192 23.0364L15.192 23.0364L15.254 22.5403ZM5.81742 13.0475L5.61709 12.5894C5.45132 12.6619 5.33764 12.8183 5.31984 12.9984L5.81742 13.0475ZM8.73972 10.1267L9.21404 9.96851L9.21404 9.96851L8.73972 10.1267ZM3.80834 5.07606L3.78062 5.57529L3.78062 5.57529L3.80834 5.07606ZM1.50539 7.24738L1.94431 7.48687L1.94432 7.48685L1.50539 7.24738ZM1.49485 7.2667L1.93375 7.50621L1.93377 7.50618L1.49485 7.2667ZM29.6241 0.915894L29.7666 0.436625C29.7204 0.422877 29.6724 0.415894 29.6241 0.415894V0.915894ZM31.842 17.34H31.342C31.342 17.3788 31.3465 17.4174 31.3554 17.4552L31.842 17.34ZM5.08746 4.15275C5.08746 4.42889 5.31131 4.65275 5.58746 4.65275C5.8636 4.65275 6.08746 4.42889 6.08746 4.15275H5.08746ZM5.58746 3.31357L5.08994 3.26381C5.08829 3.28035 5.08746 3.29695 5.08746 3.31357L5.58746 3.31357ZM12.1811 18.7581C11.9049 18.7581 11.6811 18.9819 11.6811 19.2581C11.6811 19.5342 11.9049 19.7581 12.1811 19.7581V18.7581ZM8.61592 3.4184C8.40899 3.23554 8.09301 3.25504 7.91015 3.46197C7.72729 3.66889 7.7468 3.98487 7.95372 4.16773L8.61592 3.4184ZM18.5948 12.9042L18.2637 13.2789C18.4508 13.4442 18.7312 13.4462 18.9206 13.2835L18.5948 12.9042ZM29.5303 4.17239C29.7398 3.99248 29.7637 3.67681 29.5838 3.46732C29.4039 3.25782 29.0883 3.23383 28.8788 3.41374L29.5303 4.17239ZM29.0593 17.1803C29.2691 17.3599 29.5847 17.3353 29.7642 17.1255C29.9438 16.9157 29.9193 16.6001 29.7095 16.4205L29.0593 17.1803ZM23.4755 11.0857C23.2657 10.9062 22.9501 10.9307 22.7705 11.1405C22.591 11.3503 22.6155 11.666 22.8253 11.8455L23.4755 11.0857ZM14.6073 11.8427C14.8156 11.6614 14.8374 11.3456 14.6561 11.1373C14.4748 10.929 14.159 10.9072 13.9507 11.0885L14.6073 11.8427ZM8.85564 15.5242C8.64737 15.7055 8.62552 16.0213 8.80684 16.2296C8.98816 16.4379 9.30398 16.4597 9.51226 16.2784L8.85564 15.5242ZM19.6285 27.043C8.50919 24.4672 2.56426 14.7793 0.992947 10.2665L0.0485571 10.5954C1.68366 15.2913 7.82568 25.3354 19.4029 28.0172L19.6285 27.043ZM24.1425 23.8089C24.1345 23.7739 24.1499 23.7799 24.121 23.8514C24.0931 23.9208 24.0357 24.0203 23.9347 24.1483C23.7328 24.4042 23.4033 24.7157 22.9569 25.0558C22.068 25.733 20.7834 26.4729 19.3268 27.0671L19.7046 27.993C21.2312 27.3702 22.5949 26.5888 23.5629 25.8512C24.0449 25.484 24.446 25.1146 24.7197 24.7678C24.8565 24.5944 24.9733 24.412 25.0485 24.2253C25.1229 24.0409 25.1707 23.8168 25.1169 23.584L24.1425 23.8089ZM18.9493 19.8148C19.2257 19.8251 19.6803 19.9976 20.2653 20.3443C20.8291 20.6785 21.4463 21.1327 22.0267 21.6162C22.6064 22.099 23.1383 22.6017 23.5326 23.0267C23.7302 23.2398 23.8873 23.427 23.9973 23.578C24.1209 23.7477 24.1446 23.8179 24.1425 23.8089L25.1169 23.584C25.0692 23.3773 24.933 23.1641 24.8055 22.9891C24.6644 22.7954 24.4791 22.5767 24.2657 22.3467C23.8381 21.8856 23.2741 21.3538 22.6667 20.8478C22.0599 20.3424 21.3985 19.8535 20.7752 19.484C20.173 19.1272 19.5318 18.8357 18.9863 18.8155L18.9493 19.8148ZM17.0818 22.0844C17.081 22.1161 17.0771 22.1396 17.0764 22.1441C17.0751 22.1525 17.0739 22.158 17.0736 22.1592C17.0731 22.1618 17.0735 22.1597 17.0756 22.1515C17.0798 22.1357 17.0874 22.1093 17.099 22.0725C17.122 21.9995 17.1576 21.8957 17.2058 21.7714C17.3025 21.5217 17.4451 21.2011 17.6295 20.8889C17.8159 20.5733 18.0319 20.2887 18.2678 20.0909C18.5001 19.896 18.7245 19.8065 18.9493 19.8148L18.9863 18.8155C18.442 18.7954 17.9839 19.0238 17.6251 19.3247C17.2698 19.6228 16.986 20.0121 16.7685 20.3803C16.549 20.7519 16.3838 21.1248 16.2733 21.4102C16.2178 21.5535 16.175 21.6776 16.1452 21.7719C16.1305 21.8188 16.1181 21.8608 16.1089 21.8957C16.1044 21.9129 16.0997 21.9317 16.0957 21.9504C16.0945 21.956 16.0835 22.0037 16.0821 22.0589L17.0818 22.0844ZM15.192 23.0364C16.1421 23.1551 16.7611 22.7083 16.9994 22.3469L16.1645 21.7964C16.1305 21.848 15.8791 22.1145 15.316 22.0441L15.192 23.0364ZM5.31984 12.9984C5.18201 14.3932 5.71578 15.7142 6.54115 16.8817C7.36732 18.0503 8.51408 19.1071 9.68577 19.9951C10.8603 20.8853 12.0789 21.6202 13.0669 22.1411C13.5611 22.4017 14.0015 22.6108 14.3539 22.76C14.6835 22.8996 14.9912 23.0113 15.192 23.0364L15.316 22.0441C15.3166 22.0442 15.3025 22.0422 15.2686 22.0332C15.2367 22.0247 15.195 22.012 15.1431 21.9944C15.039 21.959 14.905 21.9074 14.7439 21.8392C14.4223 21.703 14.0075 21.5066 13.5333 21.2565C12.5845 20.7563 11.4135 20.0498 10.2898 19.1981C9.16322 18.3443 8.10304 17.3587 7.35771 16.3044C6.61158 15.249 6.2093 14.1663 6.315 13.0967L5.31984 12.9984ZM8.2654 10.2849C8.27115 10.3021 8.28669 10.3848 8.20504 10.5635C8.12573 10.7371 7.97507 10.9531 7.74191 11.193C7.27728 11.6711 6.5429 12.1846 5.61709 12.5894L6.01775 13.5057C7.04014 13.0586 7.88868 12.4768 8.45902 11.89C8.74335 11.5974 8.97321 11.2886 9.11459 10.9791C9.25363 10.6748 9.33006 10.3164 9.21404 9.96851L8.2654 10.2849ZM3.78062 5.57529C3.77653 5.57507 3.79919 5.57627 3.85551 5.59886C3.90944 5.62049 3.97922 5.65563 4.0652 5.70788C4.23785 5.81281 4.44684 5.9689 4.68363 6.16962C5.15599 6.57002 5.69952 7.11415 6.22486 7.68799C6.74889 8.26039 7.24583 8.85249 7.62471 9.34349C7.81439 9.5893 7.97129 9.80565 8.08616 9.97886C8.14365 10.0655 8.18809 10.1376 8.22002 10.1947C8.2359 10.223 8.24744 10.2454 8.25544 10.2623C8.26382 10.28 8.26606 10.2869 8.2654 10.2849L9.21404 9.96851C9.16017 9.807 9.04188 9.61064 8.91955 9.42618C8.78709 9.22644 8.61485 8.98973 8.41641 8.73257C8.01905 8.21763 7.50385 7.60412 6.96245 7.01274C6.42237 6.42281 5.8472 5.845 5.33024 5.4068C5.07238 5.18822 4.81905 4.99584 4.58456 4.85333C4.36569 4.72031 4.10147 4.59157 3.83606 4.57683L3.78062 5.57529ZM1.94432 7.48685C2.13216 7.14254 2.41444 6.62815 2.77066 6.20707C3.14513 5.76441 3.48829 5.55906 3.78062 5.57529L3.83606 4.57683C3.04293 4.53279 2.42009 5.07314 2.0072 5.56121C1.57604 6.07088 1.24957 6.67229 1.06646 7.00792L1.94432 7.48685ZM1.93377 7.50618L1.94431 7.48687L1.06647 7.0079L1.05593 7.02721L1.93377 7.50618ZM1.0065 10.5495C1.1066 10.1393 1.27513 9.48961 1.45416 8.8783C1.63959 8.24514 1.8184 7.71759 1.93375 7.50621L1.05595 7.02718C0.879077 7.35129 0.672298 7.99005 0.494472 8.59724C0.310249 9.22627 0.137838 9.89101 0.0350054 10.3124L1.0065 10.5495ZM7.92519 1.41589H29.6241V0.415894H7.92519V1.41589ZM29.4816 1.39516C29.8157 1.49448 30.3192 1.69982 30.7273 1.97998C31.1633 2.27928 31.342 2.55832 31.342 2.77409H32.342C32.342 2.03079 31.7814 1.49062 31.2933 1.15554C30.7773 0.801321 30.1718 0.557092 29.7666 0.436625L29.4816 1.39516ZM31.342 2.77409V17.34H32.342V2.77409H31.342ZM31.3554 17.4552C31.4279 17.761 31.406 18.0606 31.2378 18.2764C31.0738 18.4869 30.6608 18.7581 29.6241 18.7581V19.7581C30.8053 19.7581 31.5912 19.4499 32.0266 18.8911C32.4578 18.3377 32.4359 17.6781 32.3285 17.2247L31.3554 17.4552ZM6.08746 4.15275V3.31357H5.08746V4.15275H6.08746ZM6.08498 3.36332C6.11814 3.0317 6.25956 2.52241 6.56075 2.10983C6.84859 1.71552 7.27293 1.41589 7.92519 1.41589V0.415894C6.89907 0.415894 6.19451 0.915487 5.75306 1.52022C5.32495 2.10666 5.1367 2.79621 5.08994 3.26381L6.08498 3.36332ZM29.6241 18.7581H12.1811V19.7581H29.6241V18.7581ZM7.95372 4.16773L18.2637 13.2789L18.9259 12.5296L8.61592 3.4184L7.95372 4.16773ZM18.9206 13.2835L29.5303 4.17239L28.8788 3.41374L18.2691 12.5249L18.9206 13.2835ZM29.7095 16.4205L23.4755 11.0857L22.8253 11.8455L29.0593 17.1803L29.7095 16.4205ZM13.9507 11.0885L8.85564 15.5242L9.51226 16.2784L14.6073 11.8427L13.9507 11.0885Z" fill="#F7771D"/>
</svg>
