<?xml version="1.0" encoding="utf-8"?>
<!-- Generator: Adobe Illustrator 26.0.1, SVG Export Plug-In . SVG Version: 6.00 Build 0)  -->
<svg version="1.1" id="Layer_1" xmlns="http://www.w3.org/2000/svg" xmlns:xlink="http://www.w3.org/1999/xlink" x="0px" y="0px"
	 viewBox="0 0 33 29" style="enable-background:new 0 0 33 29;" xml:space="preserve">
<style type="text/css">
	.st0{fill-rule:evenodd;clip-rule:evenodd;}
</style>
<path class="st0" d="M7.4,12.1c0.9,2.5,4.3,8.1,10.6,9.6c1.7-0.6,3-1.7,2.8-2.1c-0.1-0.5-2.3-2.4-3.2-2.4c-0.8-0.1-1.4,1.5-1.4,1.5
	c-0.1,0.1-0.4,0.4-0.7,0.3c-0.5-0.1-5.5-2.5-5.2-5.3c1.1-0.5,1.8-1.3,1.6-1.6c-0.1-0.4-2.1-2.8-2.7-2.8C8.7,9,8.2,9.9,8,10.3l0,0
	C7.8,10.6,7.5,11.7,7.4,12.1z"/>
<path d="M18,21.6l-0.1,0.3c0.1,0,0.1,0,0.2,0L18,21.6z M7.4,12.1L7.2,12c0,0.1,0,0.1,0,0.2L7.4,12.1z M17.7,17v-0.3l0,0V17z
	 M16.5,18.6l0.2,0.2c0.1-0.1,0.1-0.1,0.1-0.2H16.5z M15.7,18.8l-0.1,0.3l0,0L15.7,18.8z M10.4,13.6l-0.1-0.3
	c-0.1,0.1-0.2,0.1-0.2,0.2L10.4,13.6z M12,11.9l0.3-0.1l0,0L12,11.9z M9.3,9.1v0.3l0,0V9.1z M8,10.3l0.3,0.1l0,0L8,10.3z M8,10.3
	l0.2,0.1l0,0L8,10.3z M23.7,6.8l0.1-0.3h-0.1V6.8z M24.9,15.9h-0.3V16L24.9,15.9z M10,8.6c0,0.2,0.1,0.3,0.3,0.3
	c0.1,0,0.3-0.1,0.3-0.3H10z M10.3,8.1H10l0,0H10.3z M13.9,16.7c-0.2,0-0.3,0.1-0.3,0.3c0,0.2,0.1,0.3,0.3,0.3V16.7z M11.9,8.1
	c-0.1-0.1-0.3-0.1-0.4,0c-0.1,0.2-0.1,0.4,0,0.5L11.9,8.1z M17.6,13.5l-0.2,0.2c0.1,0.1,0.3,0.1,0.4,0L17.6,13.5z M23.6,8.6
	c0.1-0.1,0.1-0.3,0.1-0.4c-0.1-0.1-0.3-0.1-0.4-0.1L23.6,8.6z M23.4,15.9c0.1,0.1,0.3,0.1,0.4-0.1c0.1-0.1,0.1-0.3-0.1-0.4
	L23.4,15.9z M20.3,12.5c-0.1-0.1-0.3-0.1-0.4,0.1c-0.1,0.1-0.1,0.3,0.1,0.4L20.3,12.5z M15.3,12.8c0.1-0.1,0.1-0.3,0-0.4
	c-0.1-0.1-0.3-0.1-0.4,0L15.3,12.8z M12.1,14.9c-0.1,0.1-0.1,0.3,0,0.4c0.1,0.1,0.3,0.1,0.4,0L12.1,14.9z M18.1,21.3
	C11.9,20,8.6,14.6,7.7,12l-0.5,0.2c0.9,2.6,4.3,8.2,10.9,9.7L18.1,21.3z M20.6,19.5L20.6,19.5c0,0.1-0.1,0.1-0.1,0.2
	c-0.1,0.2-0.3,0.4-0.5,0.5c-0.5,0.4-1.3,0.8-2,1.1l0.2,0.5c0.8-0.4,1.6-0.8,2.2-1.2c0.3-0.2,0.5-0.4,0.6-0.6
	c0.1-0.1,0.2-0.2,0.2-0.3c0.1-0.1,0.1-0.2,0.1-0.4L20.6,19.5z M17.7,17.4c0.2,0,0.4,0.1,0.7,0.3s0.6,0.5,1,0.7s0.6,0.5,0.8,0.8
	c0.1,0.1,0.2,0.2,0.3,0.4c0.1,0.2,0.1,0.1,0.1,0.1l0.5-0.1c0-0.1-0.1-0.2-0.2-0.4c-0.1-0.1-0.2-0.2-0.3-0.4
	c-0.2-0.3-0.5-0.5-0.9-0.8c-0.4-0.3-0.7-0.5-1.1-0.8c-0.4-0.2-0.6-0.4-1-0.4V17.4z M16.7,18.6L16.7,18.6L16.7,18.6L16.7,18.6
	L16.7,18.6c0-0.1,0.1-0.1,0.1-0.2c0.1-0.1,0.1-0.4,0.2-0.5c0.1-0.2,0.2-0.4,0.4-0.5c0.1-0.1,0.3-0.2,0.4-0.2v-0.5
	c-0.3,0-0.5,0.1-0.8,0.3c-0.2,0.2-0.4,0.4-0.5,0.6c-0.1,0.2-0.2,0.4-0.3,0.5C16,18.3,16,18.4,16,18.4v0.2c0,0,0,0,0,0.1v0.1
	L16.7,18.6z M15.7,19.1c0.5,0.1,0.9-0.2,1-0.4l-0.5-0.4c0,0.1-0.2,0.2-0.5,0.1L15.7,19.1z M10.1,13.6c-0.1,0.8,0.2,1.5,0.6,2.2
	c0.5,0.6,1.1,1.3,1.7,1.7c0.6,0.5,1.4,0.9,1.9,1.2c0.3,0.2,0.5,0.3,0.7,0.4s0.4,0.2,0.5,0.2l0.1-0.5l0,0h-0.1
	c-0.1,0-0.1-0.1-0.2-0.1c-0.2-0.1-0.4-0.2-0.6-0.4c-0.5-0.3-1.2-0.6-1.8-1.2c-0.6-0.5-1.3-1-1.6-1.6c-0.4-0.6-0.6-1.2-0.5-1.8H10.1z
	 M11.8,12c0,0,0,0.1-0.1,0.2c-0.1,0.1-0.1,0.2-0.3,0.4c-0.3,0.3-0.6,0.5-1.2,0.8l0.2,0.5c0.5-0.2,1.1-0.5,1.4-0.9
	c0.2-0.2,0.4-0.4,0.4-0.5c0.1-0.2,0.1-0.4,0.1-0.5L11.8,12z M9.3,9.4L9.3,9.4L9.3,9.4c0.2,0.1,0.3,0.2,0.5,0.4
	c0.3,0.2,0.5,0.5,0.8,0.8c0.3,0.4,0.5,0.6,0.8,0.9c0.1,0.1,0.2,0.2,0.3,0.4c0.1,0.1,0.1,0.1,0.1,0.1V12l0,0l0.5-0.2
	c0-0.1-0.1-0.2-0.2-0.4c-0.1-0.1-0.2-0.2-0.3-0.4c-0.2-0.3-0.5-0.6-0.8-0.9c-0.4-0.4-0.6-0.6-0.9-0.9C10,9.1,9.9,9,9.7,9
	C9.6,8.9,9.4,8.9,9.3,8.9V9.4z M8.2,10.5c0.1-0.2,0.3-0.5,0.5-0.7c0.2-0.3,0.4-0.4,0.5-0.4l0.1-0.5C8.9,8.8,8.5,9.1,8.2,9.4
	C8.1,9.7,7.8,10,7.8,10.2L8.2,10.5z M8.2,10.5L8.2,10.5l-0.5-0.3l0,0L8.2,10.5z M7.7,12.1c0.1-0.2,0.2-0.6,0.2-0.9
	c0.1-0.4,0.2-0.6,0.3-0.8l-0.4-0.2c-0.1,0.2-0.2,0.5-0.4,0.9c-0.1,0.4-0.2,0.7-0.3,0.9L7.7,12.1z M11.6,7.1h12.1V6.5H11.6V7.1z
	 M23.6,7.1c0.2,0.1,0.5,0.2,0.6,0.4c0.2,0.2,0.4,0.4,0.4,0.5h0.5c0-0.4-0.4-0.7-0.5-0.9c-0.3-0.2-0.6-0.4-0.8-0.4L23.6,7.1z
	 M24.6,7.9V16h0.5V7.9C25.2,7.9,24.6,7.9,24.6,7.9z M24.7,16c0.1,0.2,0.1,0.4-0.1,0.5c-0.1,0.1-0.4,0.3-0.9,0.3v0.5
	c0.6,0,1.1-0.2,1.4-0.5c0.2-0.4,0.2-0.6,0.2-0.9L24.7,16z M10.6,8.6V8.1H10v0.5H10.6L10.6,8.6z M10.6,8.1c0-0.2,0.1-0.5,0.3-0.7
	c0.2-0.2,0.4-0.4,0.8-0.4V6.5c-0.5,0-0.9,0.3-1.3,0.6c-0.3,0.3-0.4,0.7-0.4,1H10.6z M23.7,16.7h-9.8v0.5h9.7
	C23.7,17.4,23.7,16.7,23.7,16.7z M11.6,8.6l5.8,5.1l0.4-0.4l-5.8-5.2L11.6,8.6z M17.7,13.7l5.9-5.1l-0.4-0.5l-5.9,5.1L17.7,13.7z
	 M23.7,15.5l-3.4-3l-0.4,0.5l3.4,3L23.7,15.5z M15,12.5l-2.9,2.4l0.4,0.5l2.8-2.4L15,12.5z"/>
</svg>
