<?xml version="1.0" encoding="utf-8"?>
<!-- Generator: Adobe Illustrator 26.0.3, SVG Export Plug-In . SVG Version: 6.00 Build 0)  -->
<svg version="1.1" id="Layer_1" xmlns="http://www.w3.org/2000/svg" xmlns:xlink="http://www.w3.org/1999/xlink" x="0px" y="0px"
	 viewBox="0 0 33 29" style="enable-background:new 0 0 33 29;" xml:space="preserve">
<style type="text/css">
	.st0{fill-rule:evenodd;clip-rule:evenodd;fill:#F7771D;}
	.st1{fill:#F7771D;}
</style>
<path class="st0" d="M4.1,11.3c1.2,3.6,5.9,11.2,14.7,13.2c2.3-0.9,4.1-2.3,3.9-3c-0.1-0.6-3.1-3.3-4.4-3.4c-1.2,0-1.8,2.1-1.8,2.1
	c-0.1,0.2-0.4,0.4-1,0.4c-0.8-0.1-7.7-3.5-7.3-7.3c1.5-0.7,2.4-1.7,2.3-2.3c-0.2-0.6-3-3.9-3.8-3.9c-0.8,0-1.5,1.2-1.8,1.7l0,0
	C4.6,9.3,4.3,10.7,4.1,11.3z"/>
<path class="st1" d="M18.8,24.5l-0.1,0.4c0.1,0,0.2,0,0.2,0L18.8,24.5z M4.1,11.3l-0.4-0.1c0,0.1,0,0.1,0,0.2L4.1,11.3z M18.3,18.2
	l0-0.4l0,0L18.3,18.2z M16.5,20.3l0.3,0.2c0-0.1,0.1-0.1,0.1-0.2L16.5,20.3z M15.5,20.6l0,0.4l0,0L15.5,20.6z M8.2,13.3L8,13
	c-0.1,0.1-0.2,0.2-0.2,0.3L8.2,13.3z M10.4,11.1l0.4-0.1l0,0L10.4,11.1z M6.6,7.2l0,0.4l0,0L6.6,7.2z M4.9,8.8L5.2,9l0,0L4.9,8.8z
	 M4.8,8.9L5.2,9l0,0L4.8,8.9z M26.6,3.9l0.1-0.4c0,0-0.1,0-0.1,0V3.9z M28.3,16.6h-0.4c0,0,0,0.1,0,0.1L28.3,16.6z M7.6,6.4
	c0,0.2,0.2,0.4,0.4,0.4c0.2,0,0.4-0.2,0.4-0.4H7.6z M8,5.8l-0.4,0c0,0,0,0,0,0H8z M13.1,17.7c-0.2,0-0.4,0.2-0.4,0.4
	c0,0.2,0.2,0.4,0.4,0.4V17.7z M10.3,5.9c-0.2-0.1-0.4-0.1-0.5,0c-0.1,0.2-0.1,0.4,0,0.5L10.3,5.9z M18.1,13.2l-0.3,0.3
	c0.1,0.1,0.4,0.1,0.5,0L18.1,13.2z M26.5,6.5c0.2-0.1,0.2-0.4,0-0.5c-0.1-0.2-0.4-0.2-0.5,0L26.5,6.5z M26.1,16.5
	c0.2,0.1,0.4,0.1,0.5,0c0.1-0.2,0.1-0.4,0-0.5L26.1,16.5z M21.8,11.8c-0.2-0.1-0.4-0.1-0.5,0c-0.1,0.2-0.1,0.4,0,0.5L21.8,11.8z
	 M15,12.4c0.2-0.1,0.2-0.4,0-0.5c-0.1-0.2-0.4-0.2-0.5,0L15,12.4z M10.5,15.2c-0.2,0.1-0.2,0.4,0,0.5c0.1,0.2,0.4,0.2,0.5,0
	L10.5,15.2z M18.8,24.1c-8.6-2-13.2-9.5-14.4-13l-0.7,0.3C5,15,9.7,22.8,18.7,24.9L18.8,24.1z M22.3,21.6
	C22.3,21.6,22.3,21.6,22.3,21.6c0,0.1-0.1,0.2-0.2,0.3c-0.2,0.2-0.4,0.4-0.8,0.7c-0.7,0.5-1.7,1.1-2.8,1.6l0.3,0.7
	c1.2-0.5,2.2-1.1,3-1.7c0.4-0.3,0.7-0.6,0.9-0.8c0.1-0.1,0.2-0.3,0.3-0.4c0.1-0.1,0.1-0.3,0.1-0.5L22.3,21.6z M18.3,18.5
	c0.2,0,0.6,0.1,1,0.4c0.4,0.3,0.9,0.6,1.4,1c0.4,0.4,0.9,0.8,1.2,1.1c0.2,0.2,0.3,0.3,0.4,0.4c0.1,0.1,0.1,0.2,0.1,0.2l0.8-0.2
	c0-0.2-0.1-0.3-0.2-0.5c-0.1-0.1-0.3-0.3-0.4-0.5c-0.3-0.4-0.8-0.8-1.2-1.2c-0.5-0.4-1-0.8-1.5-1.1c-0.5-0.3-1-0.5-1.4-0.5
	L18.3,18.5z M16.9,20.3C16.9,20.3,16.9,20.3,16.9,20.3C16.9,20.3,16.9,20.4,16.9,20.3C16.9,20.4,16.9,20.4,16.9,20.3
	C16.9,20.3,16.9,20.3,16.9,20.3c0-0.1,0.1-0.1,0.1-0.2c0.1-0.2,0.2-0.4,0.3-0.7c0.1-0.2,0.3-0.5,0.5-0.6c0.2-0.2,0.4-0.2,0.5-0.2
	l0-0.8c-0.4,0-0.8,0.2-1.1,0.4c-0.3,0.2-0.5,0.5-0.7,0.8c-0.2,0.3-0.3,0.6-0.4,0.8c0,0.1-0.1,0.2-0.1,0.3c0,0,0,0.1,0,0.1
	c0,0,0,0,0,0c0,0,0,0,0,0.1L16.9,20.3z M15.4,21c0.7,0.1,1.2-0.3,1.4-0.5l-0.6-0.4c0,0-0.2,0.2-0.7,0.2L15.4,21z M7.8,13.3
	c-0.1,1.1,0.3,2.1,0.9,3c0.6,0.9,1.5,1.7,2.4,2.4c0.9,0.7,1.8,1.3,2.6,1.7c0.4,0.2,0.7,0.4,1,0.5c0.3,0.1,0.5,0.2,0.6,0.2l0.1-0.8
	c0,0,0,0,0,0c0,0-0.1,0-0.1,0c-0.1,0-0.2-0.1-0.3-0.1c-0.2-0.1-0.6-0.3-0.9-0.4c-0.7-0.4-1.6-0.9-2.5-1.6c-0.9-0.7-1.7-1.4-2.3-2.2
	c-0.6-0.8-0.9-1.7-0.8-2.5L7.8,13.3z M10.1,11.2c0,0,0,0.1,0,0.2c-0.1,0.1-0.2,0.3-0.4,0.5C9.3,12.3,8.7,12.6,8,13l0.3,0.7
	c0.8-0.3,1.4-0.8,1.9-1.2c0.2-0.2,0.4-0.5,0.5-0.7c0.1-0.2,0.2-0.5,0.1-0.8L10.1,11.2z M6.6,7.5C6.6,7.5,6.6,7.5,6.6,7.5
	c0.1,0,0.2,0.1,0.2,0.1C7,7.7,7.1,7.8,7.3,8c0.4,0.3,0.8,0.7,1.2,1.2c0.4,0.4,0.8,0.9,1.1,1.3c0.1,0.2,0.3,0.4,0.4,0.5
	c0,0.1,0.1,0.1,0.1,0.2c0,0,0,0,0,0.1c0,0,0,0,0,0l0.7-0.2c0-0.1-0.1-0.3-0.2-0.4c-0.1-0.2-0.2-0.3-0.4-0.5C9.9,9.6,9.5,9.1,9.1,8.7
	C8.7,8.2,8.2,7.8,7.8,7.4C7.6,7.2,7.4,7.1,7.2,7C7.1,6.9,6.9,6.8,6.7,6.8L6.6,7.5z M5.2,9c0.1-0.3,0.4-0.7,0.6-1
	c0.3-0.3,0.6-0.5,0.8-0.5l0-0.8C6,6.7,5.6,7.2,5.2,7.5C4.9,7.9,4.7,8.4,4.5,8.7L5.2,9z M5.2,9L5.2,9L4.5,8.7l0,0L5.2,9z M4.5,11.4
	c0.1-0.3,0.2-0.8,0.3-1.3C5,9.6,5.1,9.2,5.2,9L4.5,8.7C4.4,8.9,4.2,9.4,4.1,9.9c-0.1,0.5-0.3,1-0.4,1.3L4.5,11.4z M9.8,4.3h16.8V3.6
	H9.8V4.3z M26.5,4.3c0.3,0.1,0.6,0.2,1,0.5c0.3,0.2,0.5,0.4,0.5,0.6h0.8c0-0.6-0.4-1-0.8-1.2c-0.4-0.3-0.9-0.5-1.2-0.6L26.5,4.3z
	 M27.9,5.4v11.2h0.8V5.4H27.9z M27.9,16.7c0.1,0.2,0,0.5-0.1,0.6c-0.1,0.2-0.4,0.4-1.2,0.4v0.8c0.9,0,1.5-0.2,1.9-0.7
	c0.3-0.4,0.3-0.9,0.2-1.3L27.9,16.7z M8.4,6.4V5.8H7.6v0.6H8.4z M8.4,5.8c0-0.3,0.1-0.6,0.4-1C9,4.6,9.3,4.3,9.8,4.3V3.6
	C9,3.6,8.5,3.9,8.1,4.4c-0.3,0.5-0.5,1-0.5,1.3L8.4,5.8z M26.6,17.7H13.1v0.8h13.5V17.7z M9.8,6.5l8,7l0.5-0.6l-8-7L9.8,6.5z
	 M18.3,13.5l8.2-7L26,5.9l-8.2,7L18.3,13.5z M26.6,15.9l-4.8-4.1l-0.5,0.6l4.8,4.1L26.6,15.9z M14.5,11.8l-3.9,3.4l0.5,0.6l3.9-3.4
	L14.5,11.8z"/>
</svg>
