<?xml version="1.0" encoding="utf-8"?>
<!-- Generator: Adobe Illustrator 26.0.3, SVG Export Plug-In . SVG Version: 6.00 Build 0)  -->
<svg version="1.1" id="Layer_1" xmlns="http://www.w3.org/2000/svg" xmlns:xlink="http://www.w3.org/1999/xlink" x="0px" y="0px"
	 viewBox="0 0 25 34" style="enable-background:new 0 0 25 34;" xml:space="preserve">
<style type="text/css">
	.st0{fill-rule:evenodd;clip-rule:evenodd;fill:#231F20;}
</style>
<path class="st0" d="M8,5.5H7.7v0.1L4.3,9L4.2,9.1v0.1v20.8v0.4h0.4H22h0.4v-0.4V5.9V5.5H22H8z M7.6,8.9V6.8L5.5,8.9H7.6z M8,9.7H5
	v20.1h16.7V6.3H8.4v3.1v0.4L8,9.7L8,9.7z M7.1,18.7h12.6v-0.8H7.1V18.7z M7.1,21.6h12.5v-0.8H7.1V21.6z M19.7,24.2H6.9v-0.8h12.8
	V24.2z M6.9,27.2h6.5v-0.8H6.9C6.9,26.5,6.9,27.2,6.9,27.2z M19.2,14.7H13c0-1,0.8-2.5,2-2.5c0.3,0.8,1.8,1.2,2.5,0
	C19.2,13.3,19.2,14.4,19.2,14.7z M16,11.6c0.9,0,1.7-0.8,1.7-1.7S16.9,8.2,16,8.2c-0.9,0-1.7,0.8-1.7,1.7
	C14.3,10.8,15.1,11.6,16,11.6z"/>
</svg>
