<svg width="25" height="34" viewBox="0 0 25 34" fill="none" xmlns="http://www.w3.org/2000/svg">
<path fill-rule="evenodd" clip-rule="evenodd" d="M5.01616 0H4.8045L4.65717 0.15197L0.141008 4.81037L0 4.95582V5.1584V33.4289V33.9289H0.5H24.1121H24.6121V33.4289V0.5V0H24.1121H5.01616ZM4.51616 4.6584V1.73408L1.68113 4.6584H4.51616ZM5.01616 5.6584H1V32.9289H23.6121V1H5.51616V5.1584V5.6584H5.01616ZM3.66487 17.9267H21.0183V16.9267H3.66487V17.9267ZM3.80711 21.8739H20.8761V20.8739H3.80711V21.8739ZM20.9828 25.6433H3.55819V24.6433H20.9828V25.6433ZM3.62931 29.555H12.4127V28.555H3.62931V29.555ZM20.2714 12.6261H12.0216C12.0216 11.1681 13.1239 9.28341 14.6174 9.28341C15.0441 10.4925 16.9999 10.9547 17.9245 9.28341C20.1719 10.592 20.4255 12.0571 20.2714 12.6261ZM16.0399 8.28771C17.2968 8.28771 18.3157 7.26878 18.3157 6.01185C18.3157 4.75493 17.2968 3.73599 16.0399 3.73599C14.7829 3.73599 13.764 4.75493 13.764 6.01185C13.764 7.26878 14.7829 8.28771 16.0399 8.28771Z" fill="#F7771D"/>
</svg>
