<?xml version="1.0" encoding="utf-8"?>
<!-- Generator: Adobe Illustrator 26.0.1, SVG Export Plug-In . SVG Version: 6.00 Build 0)  -->
<svg version="1.1" id="Layer_1" xmlns="http://www.w3.org/2000/svg" xmlns:xlink="http://www.w3.org/1999/xlink" x="0px" y="0px"
	 viewBox="0 0 25 34" style="enable-background:new 0 0 25 34;" xml:space="preserve">
<style type="text/css">
	.st0{fill-rule:evenodd;clip-rule:evenodd;fill:#231F20;}
</style>
<path class="st0" d="M8.2,7.4H8v0.1l-2.6,2.6l-0.1,0.1v0.1v16v0.3h0.3H19h0.3v-0.3V7.7V7.4H19H8.2z M7.9,10V8.4L6.3,10H7.9z
	 M8.2,10.6H5.9V26h12.8V8H8.5v2.4v0.3L8.2,10.6L8.2,10.6z M7.5,17.5h9.7v-0.6H7.5V17.5z M7.5,19.8h9.6v-0.6H7.5V19.8z M17.2,21.8
	H7.4v-0.6h9.8V21.8z M7.4,24.1h5v-0.6h-5V24.1z M16.8,14.5h-4.7c0-0.8,0.6-1.9,1.5-1.9c0.2,0.6,1.4,0.9,1.9,0
	C16.8,13.4,16.8,14.2,16.8,14.5z M14.4,12.1c0.7,0,1.3-0.6,1.3-1.3s-0.6-1.3-1.3-1.3c-0.7,0-1.3,0.6-1.3,1.3
	C13.1,11.5,13.7,12.1,14.4,12.1z"/>
</svg>
