<?xml version="1.0" encoding="utf-8"?>
<!-- Generator: Adobe Illustrator 26.0.3, SVG Export Plug-In . SVG Version: 6.00 Build 0)  -->
<svg version="1.1" id="Layer_1" xmlns="http://www.w3.org/2000/svg" xmlns:xlink="http://www.w3.org/1999/xlink" x="0px" y="0px"
	 viewBox="0 0 25 35" style="enable-background:new 0 0 25 35;" xml:space="preserve">
<style type="text/css">
	.st0{fill-rule:evenodd;clip-rule:evenodd;fill:#F7771D;}
</style>
<path class="st0" d="M6.9,5.5H6.8L6.7,5.6L3.3,9L3.2,9.1v0.1v20.8v0.4h0.4H21h0.4v-0.4V5.8V5.5H21H6.9z M6.6,8.9V6.7L4.5,8.9H6.6z
	 M6.9,9.6H4v20.1h16.7V6.2H7.3v3.1v0.4H6.9z M5.9,18.7h12.8v-0.7H5.9V18.7z M6,21.6h12.6v-0.7H6V21.6z M18.7,24.4H5.9v-0.7h12.8
	V24.4z M5.9,27.2h6.5v-0.7H5.9V27.2z M18.2,14.8h-6.1c0-1.1,0.8-2.5,1.9-2.5c0.3,0.9,1.8,1.2,2.4,0C18.1,13.3,18.3,14.3,18.2,14.8z
	 M15.1,11.6c0.9,0,1.7-0.8,1.7-1.7c0-0.9-0.8-1.7-1.7-1.7c-0.9,0-1.7,0.8-1.7,1.7C13.4,10.8,14.1,11.6,15.1,11.6z"/>
</svg>
