<?xml version="1.0" encoding="utf-8"?>
<!-- Generator: Adobe Illustrator 26.0.1, SVG Export Plug-In . SVG Version: 6.00 Build 0)  -->
<svg version="1.1" id="Layer_1" xmlns="http://www.w3.org/2000/svg" xmlns:xlink="http://www.w3.org/1999/xlink" x="0px" y="0px"
	 viewBox="0 0 29.1 29.1" style="enable-background:new 0 0 29.1 29.1;" xml:space="preserve">
<style type="text/css">
	.st0{fill:#231F20;}
</style>
<path class="st0" d="M17.1,14c1.1,0,1.9-0.8,1.9-1.9s-0.8-1.9-1.9-1.9s-1.9,0.8-1.9,1.9S16.1,14,17.1,14z M12.1,14
	c1.1,0,1.9-0.8,1.9-1.9s-0.8-1.9-1.9-1.9s-2,0.8-2,1.9S11,14,12.1,14z M12.1,15.2c-1.5,0-4.5,0.8-4.5,2.3v1.6h8.9v-1.6
	C16.5,16,13.5,15.2,12.1,15.2z M17.1,15.2c-0.2,0-0.4,0-0.6,0.1c0.8,0.5,1.3,1.3,1.3,2.2v1.6h3.8v-1.6C21.6,16,18.6,15.2,17.1,15.2z
	"/>
</svg>
