<?xml version="1.0" encoding="utf-8"?>
<!-- Generator: Adobe Illustrator 26.0.1, SVG Export Plug-In . SVG Version: 6.00 Build 0)  -->
<svg version="1.1" id="Layer_1" xmlns="http://www.w3.org/2000/svg" xmlns:xlink="http://www.w3.org/1999/xlink" x="0px" y="0px"
	 viewBox="0 0 29.1 29.1" style="enable-background:new 0 0 29.1 29.1;" xml:space="preserve">
<style type="text/css">
	.st0{fill:#231F20;}
</style>
<path class="st0" d="M16.4,14.1c0.8,0,1.4-0.6,1.4-1.4c0-0.8-0.6-1.4-1.4-1.4c-0.8,0-1.4,0.6-1.4,1.4C15,13.5,15.7,14.1,16.4,14.1z
	 M12.7,14.1c0.8,0,1.4-0.6,1.4-1.4c0-0.8-0.6-1.4-1.4-1.4c-0.8,0-1.5,0.6-1.5,1.4C11.2,13.5,11.9,14.1,12.7,14.1z M12.7,15
	c-1.1,0-3.3,0.6-3.3,1.7v1.2H16v-1.2C16,15.6,13.8,15,12.7,15z M16.4,15c-0.1,0-0.3,0-0.4,0.1c0.6,0.4,1,1,1,1.6v1.2h2.8v-1.2
	C19.8,15.6,17.5,15,16.4,15z"/>
</svg>
